<?xml version="1.0" encoding="UTF-8"?>
<svg version="1.1" xmlns="http://www.w3.org/2000/svg" width="56" height="56">
<path d="M0 0 C3.56486781 1.45669136 4.89106558 3.50901672 6.90234375 6.77734375 C7.21484375 9.65234375 7.21484375 9.65234375 6.90234375 11.77734375 C8.01609375 11.73609375 9.12984375 11.69484375 10.27734375 11.65234375 C13.90234375 11.77734375 13.90234375 11.77734375 15.90234375 13.77734375 C16.34716229 17.85656015 16.31651373 21.94214273 16.32788086 26.04370117 C16.33974348 28.07269291 16.388874 30.09860702 16.43945312 32.12695312 C16.44654297 33.41021484 16.45363281 34.69347656 16.4609375 36.015625 C16.47439209 37.19165283 16.48784668 38.36768066 16.50170898 39.5793457 C15.70997962 43.80372979 14.33360861 45.24180116 10.90234375 47.77734375 C7.84375 48.42431641 7.84375 48.42431641 4.46484375 48.44140625 C3.24023438 48.44785156 2.015625 48.45429687 0.75390625 48.4609375 C-0.51710938 48.44160156 -1.788125 48.42226563 -3.09765625 48.40234375 C-5.00417969 48.43134766 -5.00417969 48.43134766 -6.94921875 48.4609375 C-11.97423212 48.43449006 -15.9076084 48.36611888 -20.4453125 46.12109375 C-23.21703235 40.51212875 -22.69319787 34.80667052 -22.53515625 28.65234375 C-22.52935547 27.36457031 -22.52355469 26.07679687 -22.51757812 24.75 C-22.3928415 15.22012162 -22.3928415 15.22012162 -20.09765625 11.77734375 C-16.47265625 11.58984375 -16.47265625 11.58984375 -13.09765625 11.77734375 C-13.05640625 10.72546875 -13.01515625 9.67359375 -12.97265625 8.58984375 C-12.09765625 4.77734375 -12.09765625 4.77734375 -9.53515625 1.77734375 C-5.7919745 -0.40050745 -4.13955072 -0.83426646 0 0 Z M-5.09765625 5.77734375 C-5.75765625 6.43734375 -6.41765625 7.09734375 -7.09765625 7.77734375 C-7.09765625 9.09734375 -7.09765625 10.41734375 -7.09765625 11.77734375 C-4.45765625 11.77734375 -1.81765625 11.77734375 0.90234375 11.77734375 C0.57234375 10.12734375 0.24234375 8.47734375 -0.09765625 6.77734375 C-2.49485057 6.09775772 -2.49485057 6.09775772 -5.09765625 5.77734375 Z " fill="#BFCDEE" transform="translate(31.09765625,4.22265625)"/>
<path d="M0 0 C3.89559165 2.78256546 3.89559165 2.78256546 5 6 C5.10530161 10.73330745 4.64818738 15.31508134 4 20 C2.68 20 1.36 20 0 20 C-0.66 15.71 -1.32 11.42 -2 7 C-3.65 6.67 -5.3 6.34 -7 6 C-9.20399168 10.55491614 -9.58846263 15.02906176 -10 20 C-11.32 20 -12.64 20 -14 20 C-14.25034126 17.9399629 -14.47443346 15.87672534 -14.6875 13.8125 C-14.81511719 12.66394531 -14.94273438 11.51539063 -15.07421875 10.33203125 C-14.97256607 5.76836085 -13.29339927 3.4371103 -10.3125 0.125 C-6.74553372 -1.61028089 -3.64049437 -1.2374803 0 0 Z " fill="#0138BE" transform="translate(33,5)"/>
</svg>
