<svg width="25" height="24" viewBox="0 0 25 24" fill="none" xmlns="http://www.w3.org/2000/svg">
<path fill-rule="evenodd" clip-rule="evenodd" d="M11.9909 1.31589C12.3246 1.22804 12.6754 1.22804 13.0091 1.31589C13.3964 1.41782 13.7249 1.66653 13.987 1.8649L14.06 1.92L14.6668 2.37507C14.7432 2.43182 14.8206 2.49004 14.8993 2.54927L15.02 2.64L23.1 8.7C23.5418 9.03137 23.6314 9.65817 23.3 10.1C22.9686 10.5418 22.3418 10.6314 21.9 10.3L21.5 10V17.8386C21.5 18.3657 21.5 18.8205 21.4694 19.195C21.4371 19.5904 21.3658 19.9836 21.173 20.362C20.8854 20.9265 20.4265 21.3854 19.862 21.673C19.4836 21.8658 19.0904 21.9371 18.695 21.9694C18.3205 22 17.8657 22 17.3386 22H7.66144C7.1343 22 6.67954 22 6.30497 21.9694C5.90963 21.9371 5.51641 21.8658 5.13803 21.673C4.57354 21.3854 4.1146 20.9265 3.82698 20.362C3.63419 19.9836 3.56287 19.5904 3.53057 19.195C3.49997 18.8205 3.49998 18.3657 3.5 17.8385L3.5 10L3.1 10.3C2.65817 10.6314 2.03137 10.5418 1.7 10.1C1.36863 9.65817 1.45817 9.03137 1.9 8.7L9.98 2.64L10.1007 2.5493C10.1794 2.49008 10.2567 2.43187 10.3332 2.37513L10.94 1.92L11.013 1.8649C11.2751 1.66653 11.6036 1.41782 11.9909 1.31589ZM9.5 13.6V20H15.5V13.6C15.5 13.0399 15.5 12.7599 15.391 12.546C15.2951 12.3578 15.1422 12.2049 14.954 12.109C14.7401 12 14.4601 12 13.9 12H11.1C10.5399 12 10.2599 12 10.046 12.109C9.85785 12.2049 9.70487 12.3578 9.60899 12.546C9.5 12.7599 9.5 13.0399 9.5 13.6Z" fill="#00063F"/>
</svg>
