<svg width="28" height="29" viewBox="0 0 28 29" fill="none" xmlns="http://www.w3.org/2000/svg">
<g id="Capa_1" clip-path="url(#clip0_7974_3685)">
<g id="Group">
<g id="Group_2">
<path id="Vector" d="M22.4766 24.3984H5.52344V27.6797H22.4766V24.3984Z" stroke="#429EFF" stroke-width="1.5" stroke-miterlimit="10" stroke-linecap="round" stroke-linejoin="round"/>
<path id="Vector_2" d="M23.8984 24.3984H4.10156C2.28938 24.3984 0.820312 22.9294 0.820312 21.1172H27.1797C27.1797 22.9294 25.7106 24.3984 23.8984 24.3984Z" stroke="#429EFF" stroke-width="1.5" stroke-miterlimit="10" stroke-linecap="round" stroke-linejoin="round"/>
</g>
<path id="Vector_3" d="M2.21802 21.1172C2.8081 15.13 7.85794 10.4531 13.9999 10.4531C20.1418 10.4531 25.1917 15.13 25.7818 21.1172" stroke="#429EFF" stroke-width="1.5" stroke-miterlimit="10" stroke-linecap="round" stroke-linejoin="round"/>
<g id="Group_3">
<path id="Vector_4" d="M11.8124 6.29688C12.4995 5.60978 12.4995 4.49569 11.8124 3.80859C11.1253 3.1215 11.1253 2.00741 11.8124 1.32031" stroke="#429EFF" stroke-width="1.5" stroke-miterlimit="10" stroke-linecap="round" stroke-linejoin="round"/>
<path id="Vector_5" d="M16.1874 6.29688C16.8745 5.60978 16.8745 4.49569 16.1874 3.80859C15.5003 3.1215 15.5003 2.00741 16.1874 1.32031" stroke="#429EFF" stroke-width="1.5" stroke-miterlimit="10" stroke-linecap="round" stroke-linejoin="round"/>
</g>
<path id="Vector_6" d="M14 10.4531V8.8125" stroke="#429EFF" stroke-width="1.5" stroke-miterlimit="10" stroke-linecap="round" stroke-linejoin="round"/>
</g>
</g>
<defs>
<clipPath id="clip0_7974_3685">
<rect width="28" height="28" fill="white" transform="translate(0 0.5)"/>
</clipPath>
</defs>
</svg>
