<svg width="18" height="18" viewBox="0 0 18 18" fill="none" xmlns="http://www.w3.org/2000/svg">
<g id="minus-square">
<path id="Solid" fill-rule="evenodd" clip-rule="evenodd" d="M13.3789 1.5H4.62109C4.22574 1.49999 3.88465 1.49998 3.60373 1.52293C3.30722 1.54715 3.01231 1.60064 2.72852 1.74524C2.30516 1.96095 1.96095 2.30516 1.74524 2.72852C1.60064 3.01231 1.54715 3.30722 1.52293 3.60373C1.49998 3.88465 1.49999 4.22572 1.5 4.62106V13.3789C1.49999 13.7743 1.49998 14.1154 1.52293 14.3963C1.54715 14.6928 1.60064 14.9877 1.74524 15.2715C1.96095 15.6948 2.30516 16.0391 2.72852 16.2548C3.01231 16.3994 3.30722 16.4528 3.60373 16.4771C3.88466 16.5 4.22572 16.5 4.62108 16.5H13.3789C13.7743 16.5 14.1153 16.5 14.3963 16.4771C14.6928 16.4528 14.9877 16.3994 15.2715 16.2548C15.6948 16.0391 16.0391 15.6948 16.2548 15.2715C16.3994 14.9877 16.4528 14.6928 16.4771 14.3963C16.5 14.1153 16.5 13.7743 16.5 13.3789V4.62108C16.5 4.22572 16.5 3.88466 16.4771 3.60373C16.4528 3.30722 16.3994 3.01231 16.2548 2.72852C16.0391 2.30516 15.6948 1.96095 15.2715 1.74524C14.9877 1.60064 14.6928 1.54715 14.3963 1.52293C14.1154 1.49998 13.7743 1.49999 13.3789 1.5ZM6 8.25C5.58579 8.25 5.25 8.58579 5.25 9C5.25 9.41421 5.58579 9.75 6 9.75H12C12.4142 9.75 12.75 9.41421 12.75 9C12.75 8.58579 12.4142 8.25 12 8.25H6Z" fill="#B8B8B8"/>
</g>
</svg>
